<?xml version="1.0" encoding="UTF-8" standalone="no"?>
<svg
   viewBox="0 0 64 64"
   shape-rendering="crispEdges"
   version="1.1"
   xmlns="http://www.w3.org/2000/svg">
  <defs>
    <linearGradient id="swatch10">
      <stop style="stop-color:#000000;stop-opacity:1;" offset="0" />
    </linearGradient>
  </defs>

  <!-- 背景 -->
  <rect width="64" height="64" fill="#1e1e1e" />

  <!-- グレーの「O」文字（縁取り部分） -->
  <!-- 元: M 5 4 L 5 12 L 11 12 L 11 4 L 5 4 z M 6 5 L 10 5 L 10 11 L 6 11 L 6 5 z -->
  <!-- 外側: 20,16 から 44,48（幅24, 高さ32） -->
  <!-- 内側くり抜き: 24,20 から 40,44（幅16, 高さ24） -->
  <path fill="#999" d="M 20 16 L 20 48 L 44 48 L 44 16 L 20 16 z M 24 20 L 40 20 L 40 44 L 24 44 L 24 20 z" />

  <!-- 白い外枠 -->
  <!-- 元: M 5 2 L 5 3 L 4 3 L 4 4 L 3 4 L 3 12 L 4 12 L 4 13 L 5 13 L 5 14 L 11 14 L 11 13 L 12 13 L 12 12 L 13 12 L 13 4 L 12 4 L 12 3 L 11 3 L 11 2 L 5 2 z -->
  <!-- 外枠: 20,8 から 44,56（幅24, 高さ48） -->
  <!-- 内側くり抜き: 24,16 から 40,48（幅16, 高さ32） -->
  <path fill="#fff" d="M 20 8 L 20 12 L 16 12 L 16 16 L 12 16 L 12 48 L 16 48 L 16 52 L 20 52 L 20 56 L 44 56 L 44 52 L 48 52 L 48 48 L 52 48 L 52 16 L 48 16 L 48 12 L 44 12 L 44 8 L 20 8 z M 24 16 L 40 16 L 40 20 L 44 20 L 44 44 L 40 44 L 40 48 L 24 48 L 24 44 L 20 44 L 20 20 L 24 20 L 24 16 z" />

  <!-- 左バー -->
  <rect x="12" y="29" width="12" height="6" fill="#666" />

  <!-- 右バー -->
  <rect x="40" y="29" width="12" height="6" fill="#666" />
</svg>
